<svg xmlns="http://www.w3.org/2000/svg" width="460" height="280" viewBox="0 0 460 280">
<rect x="0" y="0" width="460" height="280" fill="#ffffff"/>
<defs><style>@font-face{font-family:'Balsamiq Sans';src:url('fonts/balsamiq-sans-400-normal.woff2') format('woff2');font-weight:400}@font-face{font-family:'Balsamiq Sans';src:url('fonts/balsamiq-sans-700-normal.woff2') format('woff2');font-weight:700}</style></defs>
<path d="M33.9,18.2 L34.5,25.0 L33.8,32.0 L34.6,39.0 L33.9,46.0 L34.2,53.0 L34.6,60.0 L34.0,67.0 L34.6,74.0 L34.1,81.0 L34.6,88.0 L34.6,95.0 L34.1,102.0 L33.5,109.0 L34.5,116.0 L34.4,123.0 L33.8,130.0 L33.4,137.0 L33.9,144.0 L34.1,151.0 L33.3,158.0 L34.6,165.0 L33.5,172.0 L34.3,179.0 L34.5,186.0 L34.5,193.0 L34.3,200.0 L33.6,207.0 L34.4,214.0 L33.9,221.0 L33.8,228.0 L34.2,234.9 L38.0,238.1 L45.0,237.4 L52.0,237.4 L59.0,237.6 L66.0,238.3 L73.0,237.9 L80.0,237.7 L87.0,238.1 L94.0,237.9 L101.0,237.7 L108.0,238.4 L115.0,238.3 L122.0,237.6 L129.0,238.1 L136.0,238.0 L143.0,238.5 L150.0,238.3 L157.0,237.7 L164.0,238.7 L171.0,237.5 L178.0,237.9 L185.0,238.4 L192.0,237.5 L199.0,238.0 L206.0,237.4 L213.0,238.2 L220.0,238.4 L227.0,238.1 L234.0,238.5 L241.0,237.7 L248.0,238.3 L255.0,238.1 L262.0,238.1 L269.0,237.9 L276.0,238.5 L283.0,238.6 L290.0,238.0 L297.0,238.2 L304.0,237.4 L311.0,238.3 L318.0,238.2 L325.0,238.7 L332.0,238.5 L339.0,237.7 L346.0,237.8 L353.0,238.2 L360.0,237.3 L367.0,237.9 L374.0,237.5 L381.0,237.5 L388.0,237.4 L395.0,238.4 L402.0,237.5 L409.0,237.6 L416.0,237.8 L423.0,238.5 L430.0,237.4 L437.0,237.9 L444.0,237.9" fill="none" stroke="#2b2b2b" stroke-width="1.4" stroke-linecap="round" stroke-linejoin="round"/>
<path d="M128.0,59.0L136.5,67.5M119.5,59.0L136.5,76.0M111.0,59.0L136.5,84.5M102.6,59.0L136.5,93.0M94.1,59.0L136.5,101.4M85.6,59.0L136.5,109.9M77.1,59.0L136.5,118.4M68.6,59.0L136.5,126.9" fill="none" stroke="#707070" stroke-width="0.8" stroke-opacity="0.75"/>
<path d="M68.5,59.5 L72.2,59.5 L76.2,59.6 L80.2,58.7 L84.2,58.9 L88.2,58.8 L92.2,59.6 L96.2,59.7 L100.2,58.5 L104.2,58.5 L108.2,58.6 L112.2,58.6 L116.2,59.0 L120.2,59.2 L124.2,58.6 L128.2,58.2 L132.2,58.9 L136.3,58.9 L136.4,62.7 L135.8,66.7 L136.2,70.7 L136.5,74.7 L136.3,78.7 L136.2,82.7 L137.2,86.7 L135.9,90.7 L136.1,94.7 L135.9,98.7 L136.0,102.7 L136.7,106.7 L136.7,110.7 L137.1,114.7 L136.3,118.7 L137.2,122.7 L137.2,126.7 L137.0,130.7 L137.0,134.7 L136.8,138.7 L137.2,142.7 L137.3,146.7 L137.1,150.7 L137.1,154.7 L136.7,158.7 L137.3,162.7 L135.9,166.7 L136.3,170.7 L137.1,174.7 L136.9,178.7 L136.7,182.7 L136.7,186.7 L137.1,190.7 L135.9,194.7 L135.7,198.7 L136.6,202.7 L136.5,206.7 L137.2,210.7 L137.1,214.7 L136.8,218.7 L136.9,222.7 L136.0,226.7 L137.0,230.7 L137.3,234.8 L135.4,237.4 L131.8,238.0 L127.8,238.6 L123.8,237.9 L119.8,238.8 L115.8,238.0 L111.8,237.2 L107.8,237.4 L103.8,237.7 L99.8,238.4 L95.8,238.2 L91.8,238.5 L87.8,237.6 L83.8,237.9 L79.8,237.6 L75.8,238.3 L71.8,238.4 L68.5,237.3 L68.9,233.6 L68.7,229.6 L68.7,225.6 L68.7,221.6 L68.6,217.6 L67.7,213.6 L68.2,209.6 L67.9,205.6 L67.4,201.6 L67.4,197.6 L67.8,193.6 L67.8,189.6 L68.5,185.6 L68.9,181.6 L68.1,177.6 L68.9,173.6 L68.9,169.6 L68.9,165.6 L68.0,161.6 L67.7,157.6 L67.7,153.6 L67.7,149.6 L67.7,145.6 L68.4,141.6 L68.8,137.6 L68.7,133.6 L68.1,129.6 L68.4,125.6 L68.6,121.6 L67.5,117.6 L68.4,113.6 L68.8,109.6 L68.6,105.6 L68.6,101.6 L68.1,97.6 L67.7,93.6 L68.6,89.6 L67.9,85.6 L68.6,81.6 L68.9,77.6 L68.0,73.6 L68.0,69.6 L68.9,65.6 L68.5,61.6Z" fill="none" stroke="#2b2b2b" stroke-width="1.4" stroke-linejoin="round"/>
<text x="102.3" y="52.0" font-family="Balsamiq Sans, Comic Sans MS, Comic Neue, cursive" font-size="11" font-weight="700" text-anchor="middle" fill="#2b2b2b">96%</text>
<text x="102.3" y="254.0" font-family="Balsamiq Sans, Comic Sans MS, Comic Neue, cursive" font-size="10.5" font-weight="600" text-anchor="middle" fill="#6f6f6f">Cubatão</text>
<path d="M204.8,132.8L213.3,124.3M204.8,141.2L221.8,124.3M204.8,149.7L230.3,124.3M204.8,158.2L238.8,124.3M204.8,166.7L247.3,124.3M204.8,175.2L255.7,124.3M204.8,183.7L264.2,124.3M204.8,192.2L272.7,124.3M204.8,200.6L273.2,132.3M204.8,209.1L273.2,140.8M204.8,217.6L273.2,149.3M204.8,226.1L273.2,157.8M204.8,234.6L273.2,166.2M209.9,238.0L273.2,174.7M218.4,238.0L273.2,183.2M226.9,238.0L273.2,191.7M235.4,238.0L273.2,200.2M243.8,238.0L273.2,208.7M252.3,238.0L273.2,217.2M260.8,238.0L273.2,225.6M269.3,238.0L273.2,234.1" fill="none" stroke="#707070" stroke-width="0.8" stroke-opacity="0.75"/>
<path d="M204.8,123.7 L208.8,123.7 L212.8,123.7 L216.8,124.9 L220.8,124.8 L224.8,123.7 L228.8,124.8 L232.8,125.0 L236.8,124.5 L240.8,124.0 L244.8,124.3 L248.8,123.7 L252.8,123.5 L256.8,125.0 L260.8,124.5 L264.8,124.3 L268.8,125.0 L272.9,124.2 L272.6,128.0 L272.6,131.9 L273.6,135.9 L273.6,139.9 L273.5,143.9 L273.6,147.9 L273.0,151.9 L273.6,155.9 L273.3,159.9 L273.8,163.9 L272.5,167.9 L273.4,171.9 L273.2,175.9 L273.0,179.9 L272.5,183.9 L273.3,187.9 L272.5,191.9 L273.2,195.9 L273.1,199.9 L273.1,203.9 L273.9,207.9 L273.3,211.9 L273.7,215.9 L274.0,219.9 L272.7,223.9 L273.7,227.9 L273.2,231.9 L272.8,235.8 L271.2,237.9 L267.2,238.3 L263.2,238.0 L259.2,237.9 L255.2,237.5 L251.2,238.6 L247.2,237.9 L243.2,238.4 L239.2,238.4 L235.2,237.6 L231.2,238.0 L227.2,237.9 L223.2,237.6 L219.2,237.3 L215.2,238.1 L211.2,237.8 L207.2,238.0 L204.9,236.4 L205.1,232.4 L204.8,228.4 L204.9,224.4 L204.8,220.4 L205.5,216.4 L205.2,212.4 L205.4,208.4 L205.5,204.4 L204.4,200.4 L204.9,196.4 L205.5,192.4 L205.4,188.4 L204.3,184.4 L204.2,180.4 L204.7,176.4 L204.1,172.4 L204.4,168.4 L204.2,164.4 L205.1,160.4 L205.3,156.4 L205.5,152.4 L204.3,148.4 L205.2,144.4 L205.1,140.4 L204.3,136.4 L205.4,132.4 L205.6,128.4 L204.4,124.4Z" fill="none" stroke="#2b2b2b" stroke-width="1.4" stroke-linejoin="round"/>
<text x="239.0" y="117.3" font-family="Balsamiq Sans, Comic Sans MS, Comic Neue, cursive" font-size="11" font-weight="700" text-anchor="middle" fill="#2b2b2b">61%</text>
<text x="239.0" y="254.0" font-family="Balsamiq Sans, Comic Sans MS, Comic Neue, cursive" font-size="10.5" font-weight="600" text-anchor="middle" fill="#6f6f6f">Itapanhaú</text>
<path d="" fill="none" stroke="#707070" stroke-width="0.8" stroke-opacity="0.75"/>
<path d="M341.9,167.8 L345.5,167.0 L349.5,167.1 L353.5,167.9 L357.5,167.7 L361.5,166.6 L365.5,167.0 L369.5,167.2 L373.5,166.9 L377.5,166.7 L381.5,166.9 L385.5,167.5 L389.5,166.4 L393.5,167.2 L397.5,167.1 L401.5,166.4 L405.5,166.9 L409.4,167.3 L409.8,170.8 L410.5,174.8 L409.1,178.8 L409.4,182.8 L409.1,186.8 L410.5,190.8 L410.2,194.8 L410.6,198.8 L409.4,202.8 L410.2,206.8 L410.4,210.8 L410.0,214.8 L409.2,218.8 L409.3,222.8 L410.2,226.8 L410.4,230.8 L409.2,234.7 L409.0,237.9 L405.0,237.7 L401.0,238.7 L397.0,238.7 L393.0,237.7 L389.0,238.1 L385.0,238.7 L381.0,237.3 L377.0,237.8 L373.0,237.5 L369.0,238.7 L365.0,237.4 L361.0,238.7 L357.0,237.4 L353.0,238.1 L349.0,238.3 L345.0,237.9 L342.0,237.1 L341.1,233.5 L340.9,229.5 L341.5,225.5 L341.1,221.5 L340.9,217.5 L341.0,213.5 L340.8,209.5 L341.0,205.5 L341.2,201.5 L341.2,197.5 L341.9,193.5 L341.2,189.5 L341.5,185.5 L341.0,181.5 L341.3,177.5 L340.7,173.5 L341.1,169.5Z" fill="none" stroke="#2b2b2b" stroke-width="1.4" stroke-linejoin="round"/>
<text x="375.7" y="160.2" font-family="Balsamiq Sans, Comic Sans MS, Comic Neue, cursive" font-size="11" font-weight="700" text-anchor="middle" fill="#2b2b2b">38%</text>
<text x="375.7" y="254.0" font-family="Balsamiq Sans, Comic Sans MS, Comic Neue, cursive" font-size="10.5" font-weight="600" text-anchor="middle" fill="#6f6f6f">Drenagem</text>
<path d="M34.0,52.1 L42.0,51.8 L50.0,51.6 L58.0,51.2 L66.0,51.5 L74.0,52.1 L82.0,51.1 L90.0,51.9 L98.0,51.5 L106.0,51.6 L114.0,52.0 L122.0,51.4 L130.0,51.6 L138.0,51.8 L146.0,52.1 L154.0,51.4 L162.0,52.0 L170.0,51.8 L178.0,51.7 L186.0,51.4 L194.0,51.4 L202.0,51.0 L210.0,51.1 L218.0,51.0 L226.0,51.8 L234.0,51.3 L242.0,51.2 L250.0,51.1 L258.0,52.0 L266.0,52.0 L274.0,51.8 L282.0,51.3 L290.0,51.2 L298.0,51.3 L306.0,51.5 L314.0,51.1 L322.0,51.5 L330.0,51.3 L338.0,52.1 L346.0,52.1 L354.0,51.6 L362.0,51.3 L370.0,52.1 L378.0,51.3 L386.0,51.4 L394.0,51.0 L402.0,51.4 L410.0,51.5 L418.0,51.6 L426.0,51.2 L434.0,51.6 L442.0,52.2" fill="none" stroke="#2b2b2b" stroke-width="1.6" stroke-dasharray="7 4" stroke-linecap="round"/>
<text x="444.0" y="45.6" font-family="Balsamiq Sans, Comic Sans MS, Comic Neue, cursive" font-size="10.5" font-weight="700" text-anchor="end" fill="#2b2b2b">disponibilidade (Q7,10)</text>
</svg>